<?xml version="1.0" encoding="utf-8"?>
<!-- Generator: Adobe Illustrator 24.1.1, SVG Export Plug-In . SVG Version: 6.00 Build 0)  -->
<svg version="1.1" id="Layer_1" xmlns="http://www.w3.org/2000/svg" xmlns:xlink="http://www.w3.org/1999/xlink" x="0px" y="0px"
	 viewBox="0 0 512 512" style="enable-background:new 0 0 512 512;" xml:space="preserve">
<style type="text/css">
	.st0{fill:#333333;}
</style>
<g id="XMLID_2_">
	<path id="XMLID_6_" class="st0" d="M404.9,277.4v-42.8c0-5.6-1.9-11.2-6.5-14.9s-9.3-6.5-14.9-6.5h-85.6v-85.6
		c0-5.6-1.9-11.2-6.5-14.9c-4.7-4.7-9.3-6.5-14.9-6.5h-42.8c-5.6,0-11.2,1.9-14.9,6.5c-3.7,4.7-6.5,9.3-6.5,14.9v85.6h-85.6
		c-5.6,0-11.2,1.9-14.9,6.5c-3.7,4.7-6.5,9.3-6.5,14.9v42.8c0,5.6,1.9,11.2,6.5,14.9c4.7,4.7,9.3,6.5,14.9,6.5h85.6v85.6
		c0,5.6,1.9,11.2,6.5,14.9c4.7,3.7,9.3,6.5,14.9,6.5h42.8c5.6,0,11.2-1.9,14.9-6.5c4.7-4.7,6.5-9.3,6.5-14.9v-85.6h85.6
		c5.6,0,11.2-1.9,14.9-6.5C403.1,287.7,404.9,283,404.9,277.4z M512,256c0,46.5-11.2,89.4-34.4,128.5s-54,69.8-93.1,93.1
		C345.4,500.8,302.5,512,256,512s-89.4-11.2-128.5-34.4c-39.1-23.3-69.8-54-93.1-93.1S0,302.5,0,256s11.2-89.4,34.4-128.5
		s54-69.8,93.1-93.1S209.5,0,256,0s89.4,11.2,128.5,34.4s69.8,54,93.1,93.1S512,209.5,512,256z"/>
</g>
</svg>
